<?xml version="1.0" ?><svg  viewBox="0 0 256 256" fill="#D3CD00" width="55" xmlns="http://www.w3.org/2000/svg"><title/><g id="carbohydrate-control-rice-onigiri"><g><path d="M240,170a2.006,2.006,0,0,0-2-2H226.9a29.43,29.43,0,0,0,5.24-28.32,234.457,234.457,0,0,0-46.16-80.1,29.376,29.376,0,0,0-22.08-10h-.04a29.165,29.165,0,0,0-9.03,1.43c-5.55-7.71-11.6-15.31-17.99-22.6A36.418,36.418,0,0,0,109.44,16h-.03A36.509,36.509,0,0,0,81.97,28.47a296.771,296.771,0,0,0-58,100.54A36.517,36.517,0,0,0,34.1,168H18a2.006,2.006,0,0,0-2,2,18.027,18.027,0,0,0,18,18h2.17A25.969,25.969,0,0,0,24,210v4a26.025,26.025,0,0,0,26,26H206a26.025,26.025,0,0,0,26-26v-4a25.969,25.969,0,0,0-12.17-22H222A18.027,18.027,0,0,0,240,170ZM163.87,53.58h.03a25.4,25.4,0,0,1,19.08,8.64,230.389,230.389,0,0,1,45.36,78.74A25.386,25.386,0,0,1,221.36,168H202.18c3.89-20.82-2.4-35.06-2.68-35.68a1.985,1.985,0,0,0-1.82-1.18H129.99a2,2,0,0,0-1.82,1.17c-.28.63-6.58,14.87-2.68,35.69H106.33a25.447,25.447,0,0,1-6.97-27.06q3.345-9.87,7.54-19.35a232.916,232.916,0,0,1,37.87-59.32,25.441,25.441,0,0,1,19.1-8.69ZM27.75,130.29A292.543,292.543,0,0,1,84.99,31.11,32.481,32.481,0,0,1,109.42,20h.02a32.461,32.461,0,0,1,24.4,11.05c6.08,6.94,11.86,14.17,17.17,21.51a29.16,29.16,0,0,0-9.26,7.07,236.816,236.816,0,0,0-37.91,59H66.77a1.985,1.985,0,0,0-1.82,1.18c-.38.84-8.94,20.25-2.6,48.19H40.64A32.522,32.522,0,0,1,27.75,130.29ZM76,220V198H180v22H76Zm130-36H34a14.026,14.026,0,0,1-13.86-12H235.86A14.026,14.026,0,0,1,222,184Z"/><path d="M178.21,85.11a2,2,0,0,0,.9,2.68l4,2a2,2,0,1,0,1.78-3.58l-4-2A2,2,0,0,0,178.21,85.11Z"/><path d="M177.59,80.41a1.994,1.994,0,1,0,2.82-2.82l-3-3a1.994,1.994,0,0,0-2.82,2.82Z"/><path d="M174,200H164a2.006,2.006,0,0,0-2,2v14a2.006,2.006,0,0,0,2,2h10a2.006,2.006,0,0,0,2-2V202A2.006,2.006,0,0,0,174,200Zm-2,14h-6V204h6Z"/><path d="M171.11,88.79a2,2,0,0,0,2.68-.9l2-4a2,2,0,0,0-3.58-1.78l-2,4A2,2,0,0,0,171.11,88.79Z"/><circle cx="158" cy="216" r="2"/><path d="M152,200H142a2.006,2.006,0,0,0-2,2v14a2.006,2.006,0,0,0,2,2h10a2.006,2.006,0,0,0,2-2V202A2.006,2.006,0,0,0,152,200Zm-2,14h-6V204h6Z"/><path d="M136,200H126a2.006,2.006,0,0,0-2,2v14a2.006,2.006,0,0,0,2,2h10a2.006,2.006,0,0,0,2-2V202A2.006,2.006,0,0,0,136,200Zm-2,14h-6V204h6Z"/><path d="M119.21,44.11a2,2,0,0,0,.9,2.68l4,2a2,2,0,0,0,1.78-3.58l-4-2A2,2,0,0,0,119.21,44.11Z"/><path d="M118.59,39.41a1.994,1.994,0,0,0,2.82-2.82l-3-3a1.994,1.994,0,1,0-2.82,2.82Z"/><path d="M112.11,47.79a2,2,0,0,0,2.68-.9l2-4a2,2,0,1,0-3.58-1.78l-2,4A2,2,0,0,0,112.11,47.79Z"/></g></g></svg>